<?xml version="1.0" standalone="no"?>
<!DOCTYPE svg PUBLIC "-//W3C//DTD SVG 20010904//EN"
 "http://www.w3.org/TR/2001/REC-SVG-20010904/DTD/svg10.dtd">
<svg version="1.0" xmlns="http://www.w3.org/2000/svg"
 width="105.000000pt" height="90.000000pt" viewBox="0 0 105.000000 90.000000"
 preserveAspectRatio="xMidYMid meet">

<g transform="translate(0.000000,90.000000) scale(0.100000,-0.100000)"
fill="#000000" stroke="none">
<path d="M335 890 c-55 -4 -115 -10 -133 -14 -30 -7 -32 -11 -33 -49 -2 -50
-5 -69 -18 -122 -13 -51 -14 -68 -1 -60 6 3 11 21 11 38 2 30 2 31 6 5 3 -22
10 -28 29 -28 13 0 25 1 27 3 5 3 37 -30 37 -38 0 -4 -7 -5 -15 -1 -12 4 -14
0 -11 -21 7 -36 -11 -68 -29 -53 -11 9 -20 6 -40 -16 l-25 -27 0 24 c0 19 -2
21 -10 9 -13 -18 -10 -199 3 -207 5 -3 5 -8 -1 -12 -5 -3 -12 -54 -16 -113
l-7 -107 38 -10 c121 -34 385 -40 404 -10 5 8 9 41 9 74 0 33 3 105 7 160 6
83 8 93 14 60 4 -22 10 -99 14 -172 l8 -132 55 -7 c70 -9 250 2 322 19 l55 12
3 134 c2 118 1 135 -15 148 -10 8 -12 12 -5 8 20 -10 15 165 -8 296 -11 63
-20 130 -20 150 0 45 -5 47 -184 59 -149 11 -324 10 -471 0z m-65 -66 c56 -11
42 -24 -24 -24 -60 0 -66 2 -66 21 0 18 4 20 30 15 17 -3 43 -9 60 -12z m77
-41 c-3 -10 -5 -2 -5 17 0 19 2 27 5 18 2 -10 2 -26 0 -35z m470 0 c-3 -10 -5
-2 -5 17 0 19 2 27 5 18 2 -10 2 -26 0 -35z m103 26 c0 -12 -46 -23 -65 -15
-24 9 -17 24 13 28 32 4 52 -1 52 -13z m-132 -15 c-11 -10 -177 -10 -178 1 0
6 37 12 82 15 77 5 110 -1 96 -16z m-288 1 c0 -13 -11 -15 -62 -13 -38 2 -63
8 -66 16 -3 9 14 12 62 12 53 0 66 -3 66 -15z m80 0 c0 -8 -4 -15 -9 -15 -13
0 -22 16 -14 24 11 11 23 6 23 -9z m57 -56 c-3 -12 0 -19 8 -19 8 0 11 8 8 20
-3 12 0 20 6 20 7 0 9 -4 6 -10 -3 -5 -1 -10 6 -10 10 0 10 -3 1 -12 -16 -16
-15 -28 3 -28 8 0 15 -4 15 -9 0 -5 -7 -8 -16 -7 -9 0 -19 -6 -21 -14 -4 -13
-3 -13 6 0 9 13 11 13 11 -2 0 -10 5 -18 11 -18 5 0 7 4 4 10 -3 6 1 7 9 4 9
-3 16 -11 16 -18 0 -7 3 -7 8 -1 9 13 55 18 47 5 -3 -6 0 -10 7 -10 10 0 9 -3
-2 -10 -9 -5 -19 -5 -27 2 -9 7 -13 7 -13 0 0 -6 4 -12 9 -14 14 -5 18 -43 4
-43 -6 0 -15 -4 -20 -8 -4 -5 -3 -7 2 -5 6 2 11 -1 12 -7 1 -5 -11 -9 -27 -7
-21 1 -30 -2 -30 -13 0 -9 -7 -18 -15 -21 -12 -5 -13 -10 -4 -20 6 -8 8 -14 3
-14 -4 0 1 -7 12 -16 10 -8 13 -13 7 -9 -13 6 -17 -6 -13 -34 1 -13 -1 -13
-14 -2 -9 8 -19 12 -21 9 -3 -3 6 -11 20 -18 17 -9 24 -20 21 -35 -4 -19 0
-21 39 -20 33 2 42 -1 38 -11 -3 -8 -9 -12 -14 -9 -4 3 -13 -3 -18 -14 -9 -17
-7 -20 12 -23 12 -2 22 -10 22 -18 1 -21 -28 -40 -54 -35 -13 2 -21 -1 -21
-10 0 -19 -48 -31 -63 -16 -7 7 -7 12 -2 11 31 -6 49 33 19 44 -7 3 -11 12 -8
21 3 8 1 15 -6 15 -7 0 -4 7 6 17 16 16 15 18 -10 26 -21 7 -26 14 -24 38 1
17 8 29 16 29 10 0 10 4 -3 16 -16 17 -11 32 21 59 6 6 14 26 18 45 7 34 7 35
-8 10 -8 -14 -12 -29 -9 -35 4 -6 2 -6 -3 -2 -5 5 -9 12 -9 15 0 4 -4 13 -8
20 -5 8 -4 11 4 10 8 -2 13 11 13 37 1 22 6 43 11 47 9 7 -45 23 -62 18 -4 -1
-10 7 -14 17 -7 17 -8 17 -8 0 -1 -10 -6 -15 -11 -12 -8 5 -7 11 1 21 9 11 8
18 -1 30 -8 8 -9 14 -3 12 6 -2 10 2 10 7 -1 6 -6 9 -12 7 -5 -2 -4 2 3 10 11
11 14 10 22 -2 5 -8 6 -18 4 -22 -3 -4 0 -8 5 -8 6 0 11 10 11 23 0 21 4 23
31 19 24 -4 30 -9 26 -23z m-333 6 c6 -18 -2 -45 -15 -45 -4 0 -6 -8 -2 -17 5
-14 3 -16 -7 -6 -11 10 -10 17 4 38 9 14 13 25 9 24 -17 -3 -24 1 -18 11 9 15
22 12 29 -5z m111 -3 c4 -11 0 -13 -15 -9 -11 3 -20 2 -20 -3 0 -10 29 -22 39
-16 4 3 8 -4 8 -15 2 -16 -1 -18 -12 -9 -10 9 -13 7 -11 -6 3 -19 3 -19 58
-28 36 -7 36 -7 34 -50 -4 -57 -10 -65 -45 -60 -22 4 -30 0 -33 -14 -6 -22
-38 -26 -38 -5 0 8 -4 12 -9 8 -5 -3 -12 -1 -16 5 -3 5 -2 10 2 10 5 0 9 9 10
20 1 13 -2 18 -10 14 -8 -5 -8 -3 1 7 6 7 12 20 12 29 0 13 -1 13 -10 0 -6 -9
-10 -10 -10 -3 0 21 18 24 30 6 11 -17 11 -17 6 0 -3 10 -6 23 -6 28 0 5 -3 8
-7 8 -5 -1 -23 -1 -40 0 -26 1 -33 5 -33 22 0 11 4 17 10 14 6 -3 7 1 4 9 -7
19 25 34 36 17 5 -9 9 -8 13 4 4 9 3 13 -3 10 -6 -3 -10 1 -10 9 0 20 57 18
65 -2z m482 -2 c-3 -12 -1 -18 5 -14 5 3 9 -2 8 -12 -1 -11 -2 -28 -1 -39 1
-17 3 -18 11 -5 8 13 10 13 10 -2 0 -13 7 -16 29 -13 18 2 35 -2 42 -11 10
-12 10 -15 -1 -12 -7 2 -15 -3 -17 -10 -3 -8 1 -10 11 -6 19 7 21 -7 4 -24 -8
-8 -8 -15 3 -28 9 -12 10 -15 2 -10 -7 4 -13 3 -13 -3 0 -5 -11 -9 -24 -8 -14
1 -25 -2 -25 -7 1 -10 -21 -26 -35 -26 -5 0 -6 14 -2 30 3 17 2 29 -3 26 -5
-3 -15 2 -22 11 -12 14 -11 15 9 9 13 -5 22 -3 22 3 0 6 -5 11 -11 11 -7 0 -9
10 -7 25 5 26 0 30 -56 39 -37 7 -38 8 -40 51 -1 29 1 33 10 20 14 -19 34 -20
34 -1 0 14 17 22 49 25 9 1 12 -6 8 -19z m29 11 c-4 -5 0 -12 6 -14 8 -3 6 -6
-4 -6 -10 -1 -18 6 -18 14 0 8 5 15 11 15 5 0 8 -4 5 -9z m14 -49 c0 -5 -7 -9
-15 -9 -8 0 -12 4 -9 9 3 4 9 8 15 8 5 0 9 -4 9 -8z m-653 -71 c0 -11 -5 -18
-9 -15 -4 3 -5 11 -1 19 7 21 12 19 10 -4z m593 -11 c0 -5 -2 -10 -4 -10 -3 0
-8 5 -11 10 -3 6 -1 10 4 10 6 0 11 -4 11 -10z m140 -34 c0 -3 -4 -8 -10 -11
-5 -3 -10 -1 -10 4 0 6 5 11 10 11 6 0 10 -2 10 -4z m-131 -53 c0 -25 -1 -26
-9 -8 -12 27 -12 35 0 35 6 0 10 -12 9 -27z m-616 -50 c-2 -7 2 -13 7 -13 7 0
7 -6 1 -19 -6 -10 -7 -22 -3 -26 4 -4 -4 -4 -18 -1 -24 7 -24 6 -6 -8 11 -9
23 -16 27 -16 4 0 7 -9 6 -19 0 -11 -5 -17 -9 -15 -5 3 -5 11 -2 17 4 8 2 7
-7 -1 -12 -11 -12 -14 0 -21 7 -5 21 -6 31 -4 10 3 21 0 25 -7 5 -8 11 -8 20
0 9 8 11 4 7 -16 -3 -16 -7 -21 -12 -14 -5 8 -9 7 -13 -4 -4 -9 -3 -15 1 -15
21 3 31 -3 26 -16 -4 -9 -1 -15 7 -15 8 0 5 -6 -7 -14 -11 -8 -29 -13 -40 -12
-10 2 -25 -5 -32 -15 -14 -21 -47 -25 -57 -9 -4 6 -3 10 2 9 22 -4 28 3 28 31
1 17 -2 30 -6 30 -4 0 -7 6 -6 13 1 32 -4 48 -13 42 -5 -3 -10 -1 -10 5 0 6
-11 8 -27 5 -17 -3 -34 2 -44 11 -19 17 -14 50 5 37 7 -5 3 0 -7 10 -15 13
-16 17 -4 17 8 0 14 8 13 18 -1 13 7 17 29 17 16 0 30 6 31 13 1 6 2 15 3 18
2 12 56 -2 54 -13z m257 2 c7 -9 10 -18 6 -22 -3 -3 -6 -1 -6 5 0 6 -7 9 -15
6 -14 -6 -13 -8 2 -20 16 -13 17 -15 2 -27 -13 -10 -14 -15 -4 -24 7 -7 15
-10 18 -7 2 2 10 -2 16 -10 10 -12 8 -14 -11 -9 -19 5 -21 3 -10 -8 6 -7 12
-21 12 -31 0 -10 5 -18 11 -18 8 0 8 -4 0 -14 -6 -7 -9 -20 -5 -29 3 -8 0 -18
-6 -22 -9 -6 -9 -10 1 -16 11 -6 10 -11 -6 -23 -26 -19 -28 -16 -19 29 5 26 9
33 15 23 5 -7 9 -8 9 -3 0 6 -4 17 -9 24 -8 12 -11 9 -16 -12 -4 -15 -11 -27
-16 -27 -6 0 -6 7 0 18 6 11 6 24 1 32 -5 9 -5 19 1 26 7 9 1 14 -23 20 -18 4
-39 8 -47 8 -18 1 -27 26 -9 27 7 1 15 1 18 1 3 0 6 8 6 18 0 18 -2 18 -18 3
-10 -9 -18 -14 -19 -12 0 2 -2 12 -4 23 -6 29 15 53 41 48 15 -3 27 3 36 17
15 25 31 27 48 6z m396 -32 c1 -55 -11 -49 -15 7 0 11 -5 20 -10 20 -12 0 -9
-33 4 -42 6 -5 5 -8 -3 -8 -18 0 11 -30 30 -30 11 0 11 -2 0 -9 -10 -6 -6 -13
15 -26 15 -11 36 -18 46 -18 9 1 17 -3 17 -8 0 -6 5 -7 12 -3 7 4 8 3 4 -5 -6
-9 -11 -9 -24 1 -13 11 -15 10 -9 -5 6 -15 4 -16 -13 -7 -16 8 -18 8 -14 -5 3
-8 9 -13 14 -10 4 2 16 -3 26 -11 16 -13 17 -15 2 -10 -14 4 -17 0 -15 -17 2
-18 -2 -22 -25 -19 -20 2 -28 -2 -28 -13 0 -8 -2 -15 -4 -15 -2 0 -12 -3 -21
-7 -15 -5 -16 -1 -10 25 5 25 3 32 -9 32 -9 0 -16 4 -16 10 0 5 8 7 18 4 12
-4 13 -3 4 3 -8 6 -11 21 -8 37 4 24 2 27 -14 23 -11 -3 -18 -1 -14 4 3 5 -7
9 -22 9 -23 0 -26 3 -22 25 4 20 2 23 -8 15 -9 -9 -12 -7 -10 7 2 12 10 17 22
15 11 -2 16 -1 12 3 -3 3 -14 8 -25 10 -10 2 -20 4 -22 4 -2 1 2 8 10 17 8 9
21 13 35 10 17 -5 26 -1 34 15 7 13 19 19 33 17 18 -3 22 -10 23 -45z m-541
-81 c-3 -3 -11 0 -18 7 -9 10 -8 11 6 5 10 -3 15 -9 12 -12z m395 8 c-18 -12
-30 -13 -30 -2 0 4 10 9 22 9 18 2 20 0 8 -7z m-400 -50 c0 -5 -5 -10 -11 -10
-5 0 -7 5 -4 10 3 6 8 10 11 10 2 0 4 -4 4 -10z m404 2 c3 -5 0 -9 -7 -9 -7 0
-20 -4 -29 -8 -11 -4 -18 -3 -18 5 0 6 4 9 9 5 5 -3 12 -1 16 5 8 12 22 13 29
2z m100 -14 c-3 -4 -9 -8 -15 -8 -5 0 -9 4 -9 8 0 5 7 9 15 9 8 0 12 -4 9 -9z
m-647 -4 c-3 -3 -12 -4 -19 -1 -8 3 -5 6 6 6 11 1 17 -2 13 -5z m3 -49 c0 -8
-4 -15 -10 -15 -5 0 -7 7 -4 15 4 8 8 15 10 15 2 0 4 -7 4 -15z m650 -13 c0
-5 -7 -9 -15 -9 -8 0 -12 4 -9 9 3 4 9 8 15 8 5 0 9 -4 9 -8z m-705 -107 c27
-9 96 -18 153 -22 56 -3 105 -10 109 -16 3 -5 -2 -16 -11 -25 -14 -14 -28 -14
-123 -4 -150 16 -183 27 -183 57 0 14 1 25 3 25 1 0 24 -7 52 -15z m745 -30
c0 -27 -39 -35 -165 -35 -106 0 -127 3 -132 16 -10 27 17 33 159 33 111 0 138
-3 138 -14z"/>
<path d="M638 583 c7 -3 16 -2 19 1 4 3 -2 6 -13 5 -11 0 -14 -3 -6 -6z"/>
<path d="M630 450 c0 -5 5 -10 10 -10 6 0 10 5 10 10 0 6 -4 10 -10 10 -5 0
-10 -4 -10 -10z"/>
<path d="M462 615 c-15 -34 -15 -35 6 -34 10 0 12 3 5 6 -10 3 -10 10 -2 25 6
11 9 22 6 24 -2 2 -9 -7 -15 -21z"/>
<path d="M811 693 c0 -11 3 -13 6 -5 2 6 10 9 15 6 7 -4 8 -2 4 4 -11 18 -26
14 -25 -5z"/>
<path d="M905 629 c-4 -6 -4 -13 -1 -16 3 -4 6 -1 6 6 0 7 5 9 12 5 7 -4 8 -3
4 4 -9 15 -13 15 -21 1z"/>
<path d="M240 450 c0 -5 5 -10 10 -10 6 0 10 5 10 10 0 6 -4 10 -10 10 -5 0
-10 -4 -10 -10z"/>
<path d="M147 379 c7 -7 15 -10 18 -7 3 3 -2 9 -12 12 -14 6 -15 5 -6 -5z"/>
<path d="M505 440 c3 -5 8 -10 11 -10 2 0 4 5 4 10 0 6 -5 10 -11 10 -5 0 -7
-4 -4 -10z"/>
<path d="M936 273 c-6 -14 -5 -15 5 -6 7 7 10 15 7 18 -3 3 -9 -2 -12 -12z"/>
<path d="M966 277 c3 -10 9 -15 12 -12 3 3 0 11 -7 18 -10 9 -11 8 -5 -6z"/>
<path d="M208 622 c-4 -12 -2 -24 2 -27 13 -8 18 8 10 29 -6 19 -7 19 -12 -2z"/>
<path d="M130 594 c0 -22 2 -24 14 -14 8 6 12 18 9 26 -9 23 -23 16 -23 -12z"/>
</g>
</svg>
