<?xml version="1.0" standalone="no"?>
<!DOCTYPE svg PUBLIC "-//W3C//DTD SVG 20010904//EN"
 "http://www.w3.org/TR/2001/REC-SVG-20010904/DTD/svg10.dtd">
<svg version="1.0" xmlns="http://www.w3.org/2000/svg"
 width="82.000000pt" height="139.000000pt" viewBox="0 0 82.000000 139.000000"
 preserveAspectRatio="xMidYMid meet">

<g transform="translate(0.000000,139.000000) scale(0.100000,-0.100000)"
fill="#000000" stroke="none">
<path d="M80 970 c0 -5 4 -10 9 -10 6 0 13 5 16 10 3 6 -1 10 -9 10 -9 0 -16
-4 -16 -10z"/>
<path d="M124 969 c-5 -8 -3 -9 6 -4 9 5 10 2 6 -13 -8 -25 8 -37 31 -22 16
10 15 10 -4 5 -17 -5 -20 -2 -16 13 5 23 -12 38 -23 21z"/>
<path d="M267 969 c-16 -4 -36 -5 -45 -3 -10 3 -7 -1 6 -8 18 -11 20 -16 10
-26 -10 -10 -10 -17 0 -32 10 -16 10 -20 0 -18 -17 4 -27 41 -14 50 7 5 5 8
-5 8 -9 0 -22 -7 -29 -15 -10 -11 -9 -18 4 -30 20 -21 21 -32 1 -15 -10 8 -15
9 -15 2 0 -6 8 -15 18 -21 16 -9 16 -10 0 -16 -12 -5 -18 -18 -18 -36 0 -16
-4 -29 -9 -29 -4 0 -6 11 -3 25 4 21 1 24 -14 18 -10 -4 -13 -8 -7 -10 7 -3
10 -10 7 -17 -3 -7 2 -18 10 -25 12 -10 15 -8 21 7 4 13 12 18 24 15 10 -3 22
0 25 6 4 6 2 11 -5 11 -8 0 -8 5 2 18 11 14 9 13 -9 -2 -30 -26 -39 -13 -13
20 11 15 21 23 21 18 0 -5 14 -15 31 -23 23 -10 28 -16 18 -22 -11 -7 -10 -9
4 -9 9 0 17 5 17 10 0 6 8 10 18 10 12 0 18 -9 20 -26 1 -20 -1 -24 -11 -16
-7 6 -28 10 -47 8 -28 -2 -36 -7 -38 -26 -3 -21 -1 -22 27 -17 62 13 99 -5 79
-38 -3 -5 -5 -32 -4 -58 3 -54 -4 -65 -22 -36 -9 13 -9 19 -1 19 7 0 8 7 4 18
-8 19 -17 61 -18 80 0 6 -6 12 -13 12 -10 0 -11 -6 -4 -25 6 -15 6 -26 0 -30
-12 -8 -24 20 -15 35 3 5 1 10 -4 10 -6 0 -11 -8 -11 -17 1 -24 26 -57 38 -49
6 3 13 -1 16 -10 4 -12 2 -15 -9 -10 -8 3 -15 1 -15 -3 0 -5 -8 -7 -18 -4 -14
3 -19 15 -20 46 -1 22 -7 46 -13 52 -7 7 -8 5 -4 -7 9 -23 -23 -37 -36 -17 -6
10 -9 10 -9 2 0 -8 -9 -11 -22 -9 -13 2 -22 9 -21 15 2 6 0 10 -5 8 -4 -1 -7
3 -7 8 0 6 3 9 7 8 14 -5 8 22 -11 50 -23 35 -29 36 -51 2 -10 -15 -20 -26
-24 -26 -19 3 -26 0 -26 -10 0 -8 5 -8 15 1 16 13 18 9 15 -27 -1 -13 3 -23 8
-23 6 0 8 9 5 20 -4 16 -2 19 12 13 11 -4 16 -2 12 4 -3 5 0 10 8 10 11 0 11
-4 -1 -23 -8 -12 -14 -26 -13 -30 5 -19 -14 -63 -24 -57 -6 4 -7 1 -2 -7 5 -8
3 -11 -6 -8 -8 3 -13 13 -11 23 2 9 -4 25 -14 36 -9 10 -14 24 -11 32 3 7 -1
14 -8 14 -8 0 -13 -13 -13 -34 0 -29 3 -33 19 -28 13 4 19 2 19 -8 0 -10 -7
-13 -20 -10 -11 3 -20 0 -20 -6 0 -6 8 -8 18 -4 15 6 15 4 -2 -15 -15 -18 -16
-24 -6 -37 8 -10 9 -15 1 -15 -18 0 -13 -14 12 -29 20 -13 21 -13 9 2 -9 10
-10 17 -2 22 6 3 7 12 3 18 -13 21 -12 37 4 37 10 0 13 -6 9 -16 -4 -10 1 -22
11 -31 10 -8 12 -12 5 -8 -8 4 -11 -1 -8 -17 3 -13 5 -26 5 -30 1 -5 6 -8 12
-8 8 0 9 4 0 13 -14 18 -2 30 16 16 9 -8 13 -8 13 -1 0 6 9 10 20 9 13 -1 19
-6 15 -15 -3 -7 -5 -19 -5 -25 0 -9 -2 -9 -8 -1 -5 9 -10 9 -18 0 -5 -6 -10
-13 -11 -16 -1 -18 -17 -56 -25 -61 -6 -4 -6 -9 1 -13 6 -4 11 -3 11 2 0 6 10
8 22 4 14 -3 19 -1 14 6 -5 8 -2 10 8 6 21 -8 20 -17 -4 -32 -16 -10 -20 -10
-20 0 0 7 -7 2 -16 -10 -8 -12 -21 -19 -27 -16 -9 5 -9 4 0 -6 6 -7 9 -18 7
-24 -2 -6 5 -12 16 -13 11 -1 18 2 16 6 -3 4 1 8 9 8 10 0 12 -4 5 -12 -6 -7
-7 -22 -3 -33 7 -18 10 -19 26 -7 16 11 16 13 2 19 -9 3 -13 10 -10 16 4 6 11
8 16 5 14 -9 11 18 -6 42 -13 19 -13 22 1 27 22 8 26 8 19 -4 -3 -5 -1 -10 5
-10 7 0 9 8 5 20 -4 13 -2 20 8 20 9 0 13 -11 11 -37 -1 -21 0 -32 3 -25 2 6
9 10 14 6 5 -3 9 1 9 8 0 9 3 9 10 -2 7 -12 9 -10 7 8 -1 14 -5 18 -11 12 -17
-17 -23 -11 -18 15 2 14 9 22 15 18 27 -17 119 -21 124 -5 3 7 -1 10 -11 6
-10 -4 -16 -1 -16 7 0 11 -3 11 -10 -1 -8 -12 -11 -13 -19 -1 -7 11 -9 11 -13
0 -3 -8 -6 8 -6 35 -1 27 -6 54 -11 59 -6 6 -9 2 -8 -9 1 -11 -6 -19 -18 -21
-19 -3 -19 -3 -1 5 19 8 19 9 -2 14 -12 4 -22 2 -22 -3 0 -5 -4 -9 -10 -9 -14
0 1 32 25 52 13 12 15 17 6 18 -10 0 -11 3 -2 13 6 8 8 17 4 20 -3 4 3 7 15 7
12 0 22 -4 22 -10 0 -5 13 -10 29 -10 26 0 50 -24 37 -37 -9 -9 -26 9 -20 20
5 8 3 8 -7 0 -7 -7 -23 -13 -35 -13 -12 0 -27 -6 -33 -13 -9 -11 -1 -14 42
-13 47 1 76 -13 46 -23 -7 -2 -9 1 -4 10 4 8 -1 6 -11 -4 -16 -15 -17 -19 -4
-27 9 -6 16 -6 18 0 2 6 8 8 13 4 5 -3 9 2 9 12 0 15 2 15 24 0 15 -10 27 -12
31 -6 3 6 0 10 -7 10 -9 0 -9 3 2 10 11 8 9 9 -10 5 -21 -5 -26 -2 -27 16 -2
17 2 20 22 17 18 -4 22 -1 18 11 -2 9 8 3 22 -14 15 -16 25 -25 21 -19 -3 7 1
17 8 23 11 10 16 8 21 -9 3 -11 10 -18 15 -15 11 7 31 -20 22 -30 -4 -5 -1 -5
6 -1 6 4 12 2 12 -3 0 -6 -5 -11 -10 -11 -6 0 -9 -6 -8 -12 2 -8 -7 -13 -19
-12 -16 0 -23 -5 -23 -19 0 -15 3 -17 14 -8 11 9 15 7 19 -10 4 -15 11 -20 25
-17 10 3 27 -1 38 -10 16 -12 16 -14 2 -9 -10 4 -18 2 -18 -3 0 -13 27 -13 35
-1 3 5 -3 17 -12 27 -26 26 -43 63 -36 80 5 13 7 13 14 2 7 -10 9 -11 9 0 0 7
5 10 11 7 7 -5 5 -13 -5 -24 -17 -19 -12 -31 11 -31 8 0 12 4 8 9 -3 5 -1 12
4 15 19 12 23 -16 5 -35 -9 -10 -15 -19 -13 -20 34 -7 52 -3 60 13 10 18 8 18
-11 8 -29 -16 -35 -7 -10 15 20 19 28 41 10 30 -6 -3 -10 -1 -10 4 0 19 22 12
27 -9 8 -30 23 -24 23 9 0 25 -3 28 -26 23 -16 -3 -30 1 -36 9 -7 10 -8 8 -3
-7 3 -14 0 -24 -8 -27 -10 -4 -13 2 -11 19 1 13 -2 22 -7 18 -5 -3 -9 4 -9 16
0 14 -4 19 -12 14 -9 -5 -10 -4 -3 4 11 12 72 2 68 -11 -6 -16 -2 -23 17 -23
13 0 23 10 30 31 l10 30 -19 -22 c-22 -26 -38 -30 -38 -8 0 8 7 14 15 13 8 -2
17 3 19 10 6 14 -23 16 -32 2 -9 -15 -75 -6 -86 11 -7 11 -9 9 -9 -8 0 -13 -4
-23 -10 -23 -5 0 -11 10 -11 23 -1 16 -2 18 -6 5 -5 -18 -15 -23 -26 -12 -21
21 52 39 81 21 7 -5 12 -4 12 2 0 19 20 12 20 -6 1 -17 2 -17 15 1 7 10 18 16
22 13 5 -3 15 -1 23 4 13 9 13 10 0 6 -8 -2 -21 3 -27 12 -11 13 -14 14 -22 2
-13 -20 -29 -5 -24 23 3 13 -1 27 -8 31 -8 5 -10 4 -5 -3 4 -7 1 -12 -8 -12
-17 0 -17 20 -1 32 6 5 5 8 -3 8 -10 0 -10 5 -2 20 6 11 15 18 21 15 17 -11 9
4 -15 27 -26 25 -46 33 -46 18 0 -6 -9 -6 -26 0 -16 7 -23 7 -19 0 3 -6 13
-10 21 -10 8 0 12 -5 9 -10 -4 -6 -9 -22 -11 -37 -3 -15 -9 -33 -15 -39 -6 -8
-3 -16 8 -25 16 -13 17 -12 4 4 -12 15 -11 17 2 17 10 0 13 6 10 20 -4 16 -2
19 12 13 14 -5 16 -3 10 7 -5 9 -4 11 3 6 9 -5 9 -12 1 -29 -11 -19 -13 -30
-18 -75 0 -7 -6 -10 -11 -7 -6 4 -7 12 -4 18 4 7 4 9 -1 5 -12 -12 -48 40 -40
59 3 10 3 14 -1 10 -4 -4 -14 -1 -23 5 -13 10 -14 10 -3 -2 18 -21 15 -28 -13
-22 -14 2 -25 9 -25 14 0 5 4 7 9 4 11 -7 8 21 -4 31 -4 4 -5 2 -1 -4 4 -7 2
-13 -3 -13 -6 0 -11 8 -11 19 0 22 25 46 34 32 3 -5 3 -11 -1 -14 -5 -2 -2 -2
4 -1 7 2 17 -5 22 -14 6 -9 11 -12 11 -7 1 6 3 18 5 27 2 10 -1 20 -6 24 -5 3
-9 -2 -9 -11 0 -13 -2 -14 -14 -3 -8 7 -12 17 -9 22 3 5 -3 4 -13 -2 -13 -7
-24 -7 -39 1 -19 11 -19 11 6 17 26 5 26 5 7 25 -16 16 -18 17 -13 2 5 -12 2
-17 -9 -17 -9 0 -16 -6 -17 -12 0 -7 -4 -4 -9 7 -5 11 -9 15 -9 10 -1 -13 -41
-15 -41 -2 0 4 -6 5 -12 1 -9 -6 -9 -3 1 9 8 10 12 31 9 52 -3 29 -1 35 15 35
15 0 17 -3 9 -13 -6 -7 -7 -18 -3 -26 6 -9 11 -10 15 -2 4 6 2 11 -4 11 -6 0
-8 5 -4 11 5 8 10 6 16 -5 11 -19 3 -36 -18 -36 -8 0 -13 -4 -9 -10 3 -5 13
-6 21 -3 9 3 20 0 25 -8 6 -10 8 -5 4 16 -2 17 1 32 8 37 8 5 6 8 -6 8 -11 0
-15 4 -11 12 4 6 3 8 -4 4 -6 -3 -12 0 -14 7 -2 10 -11 12 -31 6z m93 -159 c0
-5 -2 -10 -4 -10 -3 0 -8 5 -11 10 -3 6 -1 10 4 10 6 0 11 -4 11 -10z m-222
-112 c-10 -6 -9 -8 2 -8 13 0 13 -1 0 -11 -12 -9 -11 -10 8 -6 22 5 33 -18 12
-25 -6 -2 -1 -9 11 -16 17 -11 20 -11 13 0 -6 10 -5 11 8 1 8 -7 17 -12 19
-10 2 1 -1 -3 -8 -9 -15 -13 -17 -28 -3 -19 6 3 10 2 10 -3 0 -6 -7 -12 -15
-16 -8 -3 -15 -12 -15 -21 0 -8 -6 -15 -12 -15 -9 0 -10 -3 -2 -8 6 -4 13 -22
16 -39 2 -18 2 -31 0 -28 -3 3 -11 0 -19 -7 -8 -6 -17 -7 -22 -2 -13 16 -31
65 -22 59 11 -6 31 26 31 50 0 12 -5 15 -17 11 -16 -5 -15 -4 1 9 10 8 24 12
30 9 6 -3 4 0 -5 8 -9 7 -17 18 -19 23 -1 6 -7 21 -11 35 -5 14 -9 29 -8 34 0
5 -5 12 -11 16 -7 4 -9 13 -5 20 5 8 12 7 26 -6 15 -13 17 -19 7 -26z m387 21
c-3 -15 2 -23 15 -26 11 -3 20 -10 20 -15 0 -5 -6 -6 -12 -2 -10 6 -10 4 0 -7
14 -15 16 -29 3 -29 -5 0 -14 14 -21 30 -7 17 -17 30 -22 30 -5 0 -4 9 2 20
14 26 20 25 15 -1z m-140 -23 c0 -16 -5 -24 -16 -23 -15 1 -15 3 -2 24 19 28
18 28 18 -1z m-182 -28 c-2 -4 3 -5 11 -2 9 3 13 10 10 15 -3 5 2 6 10 3 20
-8 20 -9 1 -27 -21 -21 -49 -11 -62 23 l-11 29 23 -17 c13 -9 21 -20 18 -24z
m247 9 c0 -5 7 -15 15 -21 13 -10 12 -15 -11 -39 -20 -22 -29 -26 -40 -16 -8
6 -14 18 -14 27 0 8 -3 12 -7 8 -5 -4 -8 -12 -8 -18 0 -6 -11 -15 -25 -19 -24
-9 -24 -8 -6 6 11 8 15 15 10 15 -5 0 -10 8 -10 19 0 15 6 18 27 14 23 -3 27
-1 22 15 -4 16 1 20 21 20 14 0 26 -5 26 -11z m-313 -51 c5 -5 1 -7 -9 -3 -10
3 -17 3 -17 -1 3 -18 -2 -30 -15 -35 -11 -4 -13 -1 -9 10 4 11 2 14 -5 9 -19
-11 -34 3 -19 18 13 15 61 16 74 2z m413 -67 c0 -13 -28 -18 -33 -6 -3 7 3 13
14 13 11 0 19 -3 19 -7z m-298 -88 c-5 -14 -7 -13 -10 2 -2 11 -9 16 -17 13
-9 -3 -12 0 -9 9 5 11 10 12 24 3 11 -7 16 -18 12 -27z"/>
<path d="M143 474 c0 -7 6 -10 14 -7 7 3 13 8 13 12 0 4 -6 8 -13 8 -8 0 -14
-6 -14 -13z"/>
<path d="M410 670 c0 -5 7 -10 16 -10 8 0 12 -5 9 -10 -4 -6 -11 -7 -17 -4 -8
5 -9 1 -5 -10 4 -10 7 -23 7 -29 0 -7 4 -6 9 3 6 8 7 18 5 22 -3 4 2 8 11 8
19 0 11 16 -16 30 -13 7 -19 7 -19 0z"/>
<path d="M328 968 c17 -8 26 -8 34 0 9 9 4 12 -22 11 -33 0 -34 -1 -12 -11z"/>
<path d="M369 959 c-14 -11 -18 -19 -10 -19 11 0 11 -3 1 -15 -14 -17 -5 -36
14 -29 7 3 19 -3 27 -13 12 -16 12 -17 -2 -6 -25 20 -30 4 -7 -23 18 -19 24
-21 37 -11 12 10 13 9 6 -3 -8 -13 -7 -13 8 -1 14 11 20 11 32 1 8 -7 15 -8
15 -3 0 5 10 9 23 9 19 -1 22 4 21 39 -1 22 -5 47 -8 56 -5 11 -1 19 9 23 13
4 15 1 10 -14 -5 -14 -2 -18 7 -15 8 3 14 13 14 23 0 13 -10 17 -38 19 -21 0
-38 -3 -38 -8 0 -5 5 -9 11 -9 6 0 8 -7 5 -16 -3 -8 -2 -12 4 -9 13 8 13 -1 0
-26 -6 -10 -18 -19 -27 -19 -14 0 -14 2 3 15 19 15 19 15 -1 8 -17 -6 -18 -5
-7 9 10 13 10 18 1 24 -7 4 -9 3 -5 -4 3 -6 1 -14 -4 -17 -6 -4 -10 -19 -8
-33 2 -22 -1 -27 -18 -28 -17 -1 -20 3 -16 19 5 20 6 20 13 1 6 -15 8 -12 8
14 1 17 -4 32 -10 32 -8 0 -7 6 2 17 13 15 12 15 -8 5 -12 -7 -30 -12 -40 -12
-15 1 -14 3 6 14 17 10 20 14 9 18 -8 3 -25 -3 -39 -13z m117 -106 c-10 -10
-19 5 -10 18 6 11 8 11 12 0 2 -7 1 -15 -2 -18z"/>
<path d="M587 964 c5 -13 3 -15 -7 -9 -8 5 -11 4 -6 -3 3 -6 -2 -15 -11 -21
-15 -9 -16 -12 -4 -20 8 -5 20 -7 28 -4 7 3 13 -1 13 -9 0 -17 -20 -38 -34
-38 -6 0 -4 4 4 10 8 5 11 12 7 17 -9 8 -28 -17 -21 -28 2 -4 -1 -9 -8 -11 -9
-3 -10 -11 -2 -27 9 -21 11 -22 23 -7 12 14 11 16 -5 9 -17 -6 -17 -5 -6 10 8
9 19 15 25 14 7 -1 11 3 10 9 -1 7 6 19 17 29 14 12 23 14 37 6 17 -8 19 -7
17 12 -1 12 -3 27 -3 34 -1 6 -10 9 -21 6 -11 -3 -20 -1 -20 5 0 14 32 20 58
11 22 -8 31 -39 12 -39 -21 0 -9 -30 13 -31 16 -1 18 -2 5 -6 -10 -2 -18 -13
-18 -24 0 -26 4 -34 13 -31 4 1 7 -2 7 -8 0 -5 8 -10 18 -10 13 0 14 2 3 9 -8
5 -9 11 -3 15 5 3 7 17 4 31 -2 14 0 25 7 25 5 0 8 7 5 15 -4 8 -11 12 -16 8
-7 -4 -9 3 -6 19 3 19 1 25 -11 24 -9 0 -15 5 -13 12 2 9 -10 12 -40 10 -36
-3 -44 -7 -46 -26 -2 -12 -7 -20 -12 -17 -5 3 -7 12 -4 19 3 8 1 17 -5 21 -7
4 -8 0 -4 -11z m3 -38 c0 -3 -4 -8 -10 -11 -5 -3 -10 -1 -10 4 0 6 5 11 10 11
6 0 10 -2 10 -4z m44 -4 c3 -5 -1 -9 -9 -9 -8 0 -12 4 -9 9 3 4 7 8 9 8 2 0 6
-4 9 -8z"/>
<path d="M725 969 c4 -6 15 -9 24 -6 13 3 16 -5 15 -55 0 -57 8 -74 20 -42 3
9 4 20 0 25 -8 13 10 11 24 -3 9 -9 12 -4 11 23 0 20 -3 28 -7 19 -10 -21 -33
-24 -25 -3 5 12 3 14 -7 8 -8 -5 -11 -3 -8 6 3 8 12 13 21 11 8 -1 18 2 22 8
4 6 -1 7 -11 3 -10 -3 -15 -2 -12 3 4 5 -12 10 -34 12 -27 2 -37 -1 -33 -9z"/>
<path d="M55 961 c-3 -5 -1 -13 5 -16 8 -5 8 -11 0 -20 -6 -8 -10 -24 -8 -37
2 -15 -2 -23 -12 -24 -8 -1 -20 -2 -25 -3 -6 0 -11 -23 -10 -50 0 -53 15 -54
20 -2 2 20 -1 29 -9 24 -6 -3 -7 -2 -3 2 12 14 40 15 54 3 9 -7 13 -7 13 1 0
7 5 9 10 6 6 -3 19 -4 30 0 16 5 18 10 9 31 -5 14 -7 29 -5 33 3 4 1 13 -3 20
-6 9 -14 -2 -27 -33 -11 -25 -22 -46 -26 -46 -12 0 -9 15 4 28 9 9 9 12 -3 12
-12 0 -12 2 1 10 12 8 12 10 1 10 -10 0 -11 3 -2 14 8 10 9 16 1 21 -6 3 -8
11 -5 16 4 5 4 9 1 9 -3 0 -7 -4 -11 -9z"/>
<path d="M4 913 c0 -40 15 -63 17 -25 0 14 2 14 9 -3 7 -17 9 -15 9 13 1 17
-4 32 -10 32 -8 0 -8 4 -1 13 8 10 6 13 -7 13 -14 0 -18 -9 -17 -43z"/>
<path d="M670 940 c0 -5 5 -10 11 -10 5 0 7 5 4 10 -3 6 -8 10 -11 10 -2 0 -4
-4 -4 -10z"/>
<path d="M730 940 c0 -5 5 -10 10 -10 6 0 10 5 10 10 0 6 -4 10 -10 10 -5 0
-10 -4 -10 -10z"/>
<path d="M159 906 c-1 -3 -2 -9 -3 -13 -1 -5 -5 -14 -9 -20 -5 -7 -5 -13 -1
-13 3 0 1 -7 -6 -15 -15 -19 -10 -19 25 -1 17 9 22 16 15 21 -6 4 -9 13 -6 21
3 7 1 16 -4 19 -6 4 -11 4 -11 1z"/>
<path d="M625 880 c3 -6 1 -10 -5 -10 -6 0 -8 -5 -5 -10 3 -6 -1 -13 -9 -16
-23 -9 -16 -50 9 -51 18 -2 18 -1 3 8 -16 9 -16 11 0 38 9 16 20 27 24 25 5
-3 5 -10 2 -16 -4 -7 -2 -8 4 -4 14 8 5 33 -14 40 -9 3 -12 1 -9 -4z"/>
<path d="M790 854 c0 -8 4 -13 9 -10 5 4 12 0 14 -6 3 -7 6 -3 6 10 1 13 -5
22 -14 22 -8 0 -15 -7 -15 -16z"/>
<path d="M784 821 c20 -22 9 -30 -12 -9 -9 9 -12 9 -12 0 0 -7 -7 -12 -16 -12
-9 0 -12 -5 -8 -12 4 -7 -2 -5 -13 5 -18 15 -22 16 -32 3 -10 -12 -16 -13 -26
-3 -7 6 -11 17 -8 23 2 7 -5 10 -19 9 -34 -4 -35 -5 -10 -15 14 -6 22 -18 22
-33 0 -31 9 -38 30 -27 22 12 82 2 74 -12 -9 -14 6 -98 17 -98 6 0 8 4 5 9 -4
5 3 7 14 4 11 -3 20 -10 20 -15 0 -5 -4 -7 -9 -3 -5 3 -12 1 -15 -4 -4 -5 -2
-12 3 -15 15 -10 25 15 27 62 2 41 -8 62 -21 43 -12 -20 -32 1 -33 34 -2 38 7
48 28 35 12 -7 12 -12 2 -22 -18 -18 -15 -28 11 -27 17 1 18 2 4 6 -9 2 -15 9
-11 14 3 5 10 7 15 4 5 -4 9 -2 9 4 0 5 -4 12 -10 16 -5 3 -7 11 -4 18 2 7 -6
18 -18 26 -23 14 -23 14 -4 -8z m7 -143 c11 -21 11 -22 -4 -9 -10 7 -17 17
-17 22 0 15 9 10 21 -13z"/>
<path d="M48 818 c5 -5 16 -8 23 -6 8 3 3 7 -10 11 -17 4 -21 3 -13 -5z"/>
<path d="M213 766 c-4 -7 -15 -16 -23 -19 -10 -3 -7 -6 8 -6 16 -1 21 -5 16
-13 -4 -7 -3 -9 2 -5 8 7 15 57 8 57 -2 0 -7 -6 -11 -14z"/>
<path d="M440 769 c0 -5 5 -7 10 -4 6 3 10 8 10 11 0 2 -4 4 -10 4 -5 0 -10
-5 -10 -11z"/>
<path d="M585 771 c-3 -6 3 -9 14 -8 11 0 17 5 15 9 -7 11 -22 10 -29 -1z"/>
<path d="M580 737 c0 -5 12 -6 28 -3 17 4 22 3 13 -2 -7 -5 -9 -12 -4 -15 4
-3 17 1 28 9 22 16 22 16 -27 18 -21 1 -38 -2 -38 -7z"/>
<path d="M695 740 c3 -4 -4 -19 -15 -33 -14 -17 -17 -28 -9 -32 6 -4 9 -18 6
-31 -2 -12 0 -29 4 -36 5 -7 1 -20 -9 -32 -16 -18 -16 -19 13 -12 39 10 44 15
22 27 -22 13 -22 29 1 29 14 0 15 -2 2 -10 -13 -9 -13 -10 1 -10 8 0 24 7 35
16 17 14 17 15 1 10 -10 -3 -15 -2 -12 3 3 5 1 12 -5 16 -7 4 -7 12 0 25 7 13
6 19 -5 24 -8 3 -15 15 -15 27 0 18 2 19 15 9 10 -9 15 -9 15 -1 0 6 -3 11 -7
12 -5 0 -16 2 -26 4 -9 2 -15 0 -12 -5z m1 -49 c-4 -5 -1 -12 4 -14 6 -3 5 -4
-2 -3 -15 3 -23 26 -8 26 6 0 9 -4 6 -9z"/>
<path d="M320 730 c0 -5 5 -10 11 -10 5 0 7 5 4 10 -3 6 -8 10 -11 10 -2 0 -4
-4 -4 -10z"/>
<path d="M580 694 c0 -15 4 -23 10 -19 6 4 17 2 24 -4 16 -14 52 21 40 40 -5
9 -10 8 -19 -5 -11 -14 -13 -15 -19 -1 -9 25 -36 18 -36 -11z"/>
<path d="M268 603 c7 -3 16 -2 19 1 4 3 -2 6 -13 5 -11 0 -14 -3 -6 -6z"/>
<path d="M775 600 c-3 -5 -1 -10 4 -10 6 0 11 5 11 10 0 6 -2 10 -4 10 -3 0
-8 -4 -11 -10z"/>
<path d="M800 596 c0 -9 5 -16 10 -16 6 0 10 4 10 9 0 6 -4 13 -10 16 -5 3
-10 -1 -10 -9z"/>
<path d="M743 593 c-7 -2 -13 -11 -13 -19 0 -8 -7 -14 -15 -14 -8 0 -15 -7
-15 -16 0 -8 -7 -22 -15 -31 -12 -12 -13 -18 -4 -29 6 -8 9 -23 6 -33 -3 -15
1 -21 16 -23 21 -3 21 -3 -3 -26 -17 -16 -26 -19 -31 -10 -6 9 -10 8 -15 -5
-3 -9 -10 -14 -16 -11 -5 3 -4 -3 4 -15 8 -14 18 -19 28 -14 8 4 32 6 53 5 30
-1 37 2 37 18 0 10 5 22 10 25 6 3 10 11 10 17 0 6 -6 5 -16 -3 -14 -11 -18
-10 -30 6 -9 11 -10 21 -5 23 5 2 7 10 4 18 -3 8 0 20 5 27 18 22 0 37 -23 20
-19 -15 -19 -15 5 -9 22 6 23 5 9 -6 -9 -7 -14 -18 -12 -25 2 -6 -2 -15 -9
-19 -7 -4 -10 -4 -6 0 4 5 3 19 -3 32 -7 19 -5 26 6 30 8 4 15 15 15 26 0 12
4 17 12 12 7 -4 8 -3 4 4 -5 8 1 12 14 12 12 0 19 -4 16 -9 -3 -4 6 -6 19 -3
21 4 22 6 10 18 -8 8 -21 11 -31 7 -13 -5 -16 -3 -11 10 3 9 5 17 4 16 -1 0
-8 -3 -14 -6z m-9 -199 c3 -8 2 -12 -4 -9 -6 3 -10 10 -10 16 0 14 7 11 14 -7z"/>
<path d="M7 550 c9 -9 9 -19 2 -32 -12 -23 -6 -33 15 -25 18 7 11 41 -13 59
-13 10 -14 10 -4 -2z"/>
<path d="M280 545 c-7 -9 -11 -17 -9 -20 3 -2 10 5 17 15 14 24 10 26 -8 5z"/>
<path d="M407 532 c-18 -19 -19 -62 -2 -62 6 0 7 -3 0 -8 -30 -22 9 -40 42
-19 18 11 4 37 -21 38 l-21 0 22 9 c15 6 20 15 16 30 -8 29 -18 32 -36 12z"/>
<path d="M470 540 c0 -5 5 -10 11 -10 5 0 7 5 4 10 -3 6 -8 10 -11 10 -2 0 -4
-4 -4 -10z"/>
<path d="M675 540 c-3 -5 -1 -10 4 -10 6 0 11 5 11 10 0 6 -2 10 -4 10 -3 0
-8 -4 -11 -10z"/>
<path d="M801 526 c-11 -13 -11 -20 -3 -28 8 -8 13 -7 18 5 10 27 0 41 -15 23z"/>
<path d="M357 523 c-2 -5 -4 -24 -4 -43 0 -19 1 -25 4 -13 3 13 10 20 18 17
10 -4 12 0 8 15 -6 23 -19 36 -26 24z"/>
<path d="M760 514 c0 -12 7 -27 15 -34 18 -15 20 -35 3 -24 -7 4 -8 3 -4 -4 4
-6 14 -8 23 -5 11 4 14 3 9 -5 -4 -7 -2 -12 3 -12 6 0 11 11 11 25 0 18 -4 23
-15 19 -9 -4 -15 0 -15 8 0 8 -7 23 -15 34 -14 19 -14 19 -15 -2z"/>
<path d="M287 494 c2 -6 13 -14 23 -17 14 -3 17 -1 13 11 -5 11 -3 13 8 7 8
-5 11 -4 6 1 -13 14 -56 13 -50 -2z"/>
<path d="M53 485 c4 -8 2 -17 -3 -20 -6 -4 -10 -1 -10 4 0 6 -10 11 -22 10
-22 0 -22 -1 -3 -9 17 -7 17 -9 3 -9 -21 -1 -25 -40 -6 -59 8 -8 9 -12 1 -12
-7 0 -11 -20 -10 -55 1 -48 3 -54 19 -49 12 3 18 0 18 -9 0 -10 -7 -13 -20
-10 -15 4 -20 1 -19 -13 0 -11 3 -14 6 -6 2 6 9 12 14 12 6 0 8 -4 5 -8 -3 -5
13 -8 34 -7 21 1 37 -2 34 -7 -3 -4 0 -8 5 -8 6 0 11 -9 11 -20 0 -12 -7 -20
-16 -20 -11 0 -14 4 -8 13 5 7 2 5 -7 -5 -9 -9 -19 -14 -23 -11 -3 4 -6 1 -6
-5 0 -5 4 -12 9 -14 5 -2 4 -14 -2 -28 -15 -37 -17 -51 -5 -44 6 4 8 -2 6 -12
-2 -11 -10 -19 -18 -19 -9 0 -15 -10 -15 -23 0 -13 -7 -27 -15 -32 -12 -8 -9
-10 10 -10 37 0 50 12 45 43 -3 16 -1 27 6 27 6 0 9 -9 6 -19 -5 -22 14 -34
38 -25 8 4 15 1 15 -7 0 -7 2 -10 5 -7 3 3 -1 23 -9 46 -8 22 -12 43 -8 47 3
3 -1 3 -11 -1 -9 -3 -17 -10 -17 -15 0 -5 -4 -9 -8 -9 -10 0 -10 75 0 85 4 4
16 0 28 -8 13 -9 17 -17 11 -22 -6 -3 -11 0 -11 7 0 8 -5 6 -11 -5 -6 -10 -8
-21 -5 -24 3 -4 6 -1 6 5 0 6 9 9 19 7 11 -2 25 3 32 11 9 11 8 14 -4 14 -9 0
-15 8 -14 19 0 11 5 17 9 15 4 -3 8 1 8 8 0 9 3 9 10 -2 6 -10 10 -11 10 -2 0
6 5 12 11 12 5 0 7 -6 3 -12 -5 -9 -2 -9 9 1 11 9 17 10 17 2 0 -8 5 -8 19 1
11 7 17 16 14 20 -2 5 -11 4 -19 -3 -11 -9 -14 -8 -14 4 0 9 5 19 10 22 8 5 7
11 -1 21 -9 11 -9 14 1 14 8 0 11 2 8 5 -3 3 -13 2 -22 -1 -14 -5 -15 -9 -4
-15 10 -7 9 -9 -4 -9 -10 0 -18 6 -18 13 0 8 -4 7 -10 -3 -8 -12 -10 -11 -10
8 0 19 4 21 23 17 22 -6 23 -4 20 27 -3 25 -2 29 6 18 6 -8 11 -13 12 -10 0 3
2 13 4 22 2 12 -3 15 -18 13 -11 -3 -26 3 -33 13 -8 9 -14 12 -14 5 0 -6 5
-15 10 -18 6 -4 7 -11 4 -17 -5 -7 -2 -8 6 -3 10 6 12 4 7 -9 -4 -10 -7 -20
-7 -22 0 -2 -5 -4 -11 -4 -5 0 -7 5 -3 12 4 7 3 8 -5 4 -6 -4 -9 -11 -6 -16 3
-5 -3 -13 -12 -19 -10 -6 -12 -11 -5 -11 6 0 12 -5 12 -11 0 -20 33 -39 48
-27 9 8 11 7 7 -5 -12 -30 -65 -29 -65 1 0 15 -2 15 -10 2 -8 -11 -9 -9 -5 10
7 28 -22 75 -31 53 -3 -7 -13 -13 -22 -13 -14 0 -15 -2 -2 -10 8 -5 12 -11 9
-14 -8 -8 -23 7 -43 43 -18 32 -18 35 -1 47 9 7 15 19 12 26 -4 11 -6 11 -6 0
-1 -7 -5 -10 -11 -7 -5 3 -10 -2 -11 -12 0 -10 -3 -13 -5 -7 -3 6 2 23 10 39
14 26 13 30 -2 43 -9 7 -12 11 -6 8 6 -3 23 7 38 23 24 25 25 29 11 35 -13 4
-16 2 -12 -9z m17 -371 c0 -8 -5 -12 -10 -9 -6 4 -8 11 -5 16 9 14 15 11 15
-7z m-17 -84 c-3 -11 -8 -20 -12 -20 -4 0 -7 9 -7 20 0 11 6 20 12 20 7 0 10
-8 7 -20z"/>
<path d="M640 449 c0 -5 5 -7 10 -4 6 3 10 8 10 11 0 2 -4 4 -10 4 -5 0 -10
-5 -10 -11z"/>
<path d="M466 442 c-3 -5 1 -9 9 -9 8 0 15 4 15 9 0 4 -4 8 -9 8 -6 0 -12 -4
-15 -8z"/>
<path d="M590 428 c0 -7 10 -14 22 -15 11 -1 24 -7 28 -13 5 -8 9 -6 14 5 8
23 9 22 -16 21 -13 -1 -29 2 -35 7 -9 6 -13 5 -13 -5z"/>
<path d="M355 409 c5 -15 4 -19 -4 -15 -6 4 -11 2 -11 -5 0 -8 -4 -8 -15 1 -8
7 -22 10 -30 6 -8 -3 -15 -1 -15 4 0 6 5 10 12 10 6 0 8 3 4 7 -4 5 -14 -1
-22 -12 -8 -11 -18 -19 -22 -17 -4 1 -8 -7 -10 -18 -3 -18 1 -20 40 -18 27 2
43 -1 43 -9 0 -6 4 -15 9 -20 5 -4 6 -3 2 4 -3 6 -1 15 6 20 7 4 18 22 24 40
10 26 9 33 -3 37 -11 5 -13 1 -8 -15z"/>
<path d="M405 419 c-11 -4 -15 -8 -9 -8 6 -1 16 -12 22 -26 14 -31 15 -48 3
-41 -10 6 -41 -36 -41 -55 0 -6 7 -9 15 -5 9 3 15 0 15 -9 0 -9 -6 -12 -15 -9
-8 4 -15 1 -15 -5 0 -6 -7 -11 -15 -11 -8 0 -15 5 -15 11 0 6 -9 18 -20 27
-12 10 -22 27 -23 40 -2 26 -19 29 -42 6 -12 -12 -13 -19 -4 -30 15 -19 18
-18 12 5 -3 10 0 22 6 25 11 7 15 -11 12 -46 -1 -10 3 -18 8 -18 6 0 11 5 11
11 0 8 5 8 15 -1 23 -19 18 -33 -10 -28 -14 3 -25 1 -25 -3 0 -5 -9 -9 -21 -9
-13 0 -20 6 -18 18 4 39 -2 52 -21 52 -25 0 -26 -17 -1 -25 13 -4 17 -12 14
-25 -4 -15 2 -23 28 -34 35 -15 73 -11 47 5 -8 6 2 9 30 9 23 0 42 5 42 11 0
5 5 7 10 4 15 -9 12 -25 -6 -25 -8 0 -12 -5 -9 -10 5 -8 11 -7 21 1 11 9 14 8
14 -6 0 -13 -5 -16 -22 -11 -47 14 -58 15 -58 5 0 -6 -4 -8 -9 -5 -5 4 -7 -4
-3 -16 5 -19 3 -21 -9 -11 -14 11 -73 12 -84 1 -3 -3 1 -11 9 -17 11 -9 20
-10 36 -1 16 9 25 8 36 0 21 -18 47 -5 35 18 -8 14 -6 19 5 19 16 0 20 -42 4
-52 -5 -3 -10 -15 -10 -26 0 -10 -6 -19 -13 -19 -8 0 -14 -7 -14 -15 0 -12 3
-12 16 -2 12 10 14 9 8 -6 -8 -22 11 -22 21 1 4 9 13 18 21 20 11 2 12 0 2
-11 -9 -12 -7 -15 14 -19 30 -6 35 -2 35 28 0 26 -16 40 -23 22 -3 -8 -6 -6
-6 5 -1 9 6 17 15 17 8 0 12 5 9 10 -5 8 -11 8 -20 0 -10 -8 -15 -8 -21 2 -15
23 -12 34 7 34 11 0 19 -4 19 -8 0 -19 28 6 28 25 1 41 14 87 24 87 6 0 4 7
-3 16 -12 15 -11 16 10 9 16 -5 26 -3 32 6 7 11 9 10 9 -3 0 -9 4 -19 9 -23 6
-3 8 4 6 15 -2 11 2 20 8 20 9 0 8 3 -1 9 -10 6 -9 13 6 31 l19 24 -31 17
c-29 16 -32 15 -44 -2 -7 -11 -19 -16 -25 -13 -9 5 -9 4 0 -6 6 -7 9 -18 7
-24 -2 -6 5 -12 16 -13 11 -1 18 2 15 8 -4 5 -4 9 -1 9 3 0 10 -8 15 -19 9
-16 6 -18 -24 -16 -34 1 -39 -4 -36 -35 1 -11 -3 -10 -14 4 -19 25 -19 35 0
42 8 4 15 14 14 23 0 10 -2 11 -6 3 -9 -23 -22 -2 -13 23 10 27 -3 37 -35 24z
m12 -101 c-3 -8 -6 -5 -6 6 -1 11 2 17 5 13 3 -3 4 -12 1 -19z m30 -55 c-4
-31 -22 -41 -30 -18 -4 10 0 15 11 16 10 0 12 3 4 6 -13 5 -7 23 9 23 5 0 8
-12 6 -27z m-49 -136 c2 -12 -3 -17 -17 -17 -12 0 -21 6 -21 13 0 31 32 34 38
4z"/>
<path d="M58 413 c7 -3 16 -2 19 1 4 3 -2 6 -13 5 -11 0 -14 -3 -6 -6z"/>
<path d="M316 408 c3 -4 9 -8 15 -8 5 0 9 4 9 8 0 5 -7 9 -15 9 -8 0 -12 -4
-9 -9z"/>
<path d="M468 413 c7 -3 16 -2 19 1 4 3 -2 6 -13 5 -11 0 -14 -3 -6 -6z"/>
<path d="M676 408 c3 -5 10 -6 15 -3 13 9 11 12 -6 12 -8 0 -12 -4 -9 -9z"/>
<path d="M798 407 c11 -13 10 -16 -9 -22 -15 -5 -18 -9 -9 -15 16 -10 4 -30
-17 -30 -13 0 -15 -8 -9 -47 4 -33 3 -43 -4 -33 -8 13 -10 12 -10 -2 0 -10 7
-18 15 -18 8 0 15 6 15 13 0 7 3 8 8 2 4 -5 14 -10 22 -11 12 -1 15 11 15 52
0 30 -3 54 -7 54 -5 0 -8 5 -8 11 0 5 4 8 9 4 6 -3 9 7 8 21 -1 15 -9 30 -17
32 -13 4 -13 3 -2 -11z m0 -79 c-5 -13 -38 -20 -38 -8 0 8 17 18 33 19 5 1 7
-4 5 -11z m-8 -53 c14 -19 14 -19 -2 -6 -10 7 -18 18 -18 24 0 6 1 8 3 6 1 -2
9 -13 17 -24z"/>
<path d="M591 388 c-1 -11 -6 -15 -15 -12 -8 3 -17 1 -21 -5 -3 -6 0 -9 8 -5
8 3 18 0 22 -6 6 -9 10 -9 17 1 7 10 9 9 5 -7 -3 -13 1 -21 10 -21 8 0 12 6 8
14 -3 8 -5 21 -5 29 0 9 -4 13 -9 10 -5 -4 -12 0 -14 6 -3 8 -6 6 -6 -4z"/>
<path d="M366 352 c-3 -6 -3 -18 1 -28 4 -11 3 -15 -5 -10 -18 11 -24 -13 -9
-35 9 -13 17 -16 22 -10 3 6 1 11 -5 11 -7 0 -4 12 7 30 12 22 14 33 6 41 -7
7 -13 7 -17 1z"/>
<path d="M692 342 c4 -13 -14 -52 -23 -52 -5 0 -9 4 -9 9 0 5 -9 11 -19 14
-15 3 -18 1 -14 -12 4 -11 1 -10 -10 4 -14 17 -18 18 -26 5 -7 -9 -6 -19 1
-27 6 -7 7 -13 2 -13 -5 0 -2 -5 6 -10 13 -8 12 -10 -3 -10 -9 0 -16 -3 -16
-7 4 -27 -4 -38 -27 -40 -23 -1 -25 2 -21 25 3 14 0 36 -6 49 -10 23 -27 31
-27 13 0 -5 -8 -10 -17 -11 -11 0 -13 -3 -5 -6 6 -2 12 -9 12 -14 0 -6 -5 -7
-12 -3 -7 5 -8 3 -4 -5 5 -7 15 -10 23 -7 8 3 11 1 8 -4 -3 -6 -2 -10 3 -10 5
0 12 -9 15 -20 3 -13 0 -20 -10 -20 -10 0 -13 6 -9 18 4 12 1 11 -13 -5 -10
-12 -21 -19 -25 -16 -3 4 -6 2 -6 -3 0 -5 9 -15 19 -21 15 -10 21 -10 25 0 3
9 7 9 14 -2 7 -9 12 -10 16 -2 4 6 17 9 29 7 12 -1 16 -1 10 1 -7 3 -13 9 -13
14 0 6 -6 7 -12 3 -10 -5 -10 -4 -1 6 7 7 17 9 25 4 19 -12 38 -14 38 -3 0 5
-5 9 -11 9 -8 0 -8 5 1 15 7 8 9 15 5 15 -4 0 -3 6 3 13 6 6 11 16 11 22 1 9
32 15 76 16 16 0 17 2 5 9 -10 7 -11 10 -2 10 6 0 12 7 12 15 0 18 16 20 23 3
3 -8 6 -6 6 5 1 9 -2 17 -6 18 -5 0 -16 2 -25 4 -10 2 -17 0 -16 -3z"/>
<path d="M665 331 c-3 -5 -1 -12 5 -16 5 -3 10 1 10 9 0 18 -6 21 -15 7z"/>
<path d="M65 319 c7 -11 35 -12 35 -1 0 4 -9 8 -20 9 -11 1 -18 -2 -15 -8z"/>
<path d="M556 295 c3 -20 1 -25 -8 -19 -9 5 -8 1 2 -12 8 -10 15 -21 16 -22 2
-2 2 12 0 32 -1 19 -5 38 -8 42 -4 3 -5 -6 -2 -21z"/>
<path d="M722 289 c2 -7 -10 -15 -26 -18 -16 -3 -31 -13 -33 -21 -4 -13 -3
-13 6 0 6 8 11 10 11 5 0 -6 -5 -16 -12 -23 -9 -9 -7 -12 10 -12 12 0 22 -4
22 -10 0 -5 5 -10 11 -10 5 0 8 4 4 9 -3 5 -1 12 5 16 6 4 8 10 5 15 -3 5 -1
18 5 29 7 14 7 22 0 26 -6 4 -9 1 -8 -6z"/>
<path d="M625 240 c-3 -6 1 -7 9 -4 18 7 21 14 7 14 -6 0 -13 -4 -16 -10z"/>
<path d="M20 232 c-16 -7 -27 -62 -13 -62 17 0 28 16 30 43 0 15 0 27 -1 26 0
0 -8 -3 -16 -7z"/>
<path d="M540 230 c0 -5 5 -10 11 -10 5 0 7 5 4 10 -3 6 -8 10 -11 10 -2 0 -4
-4 -4 -10z"/>
<path d="M776 224 c-10 -7 -23 -11 -29 -7 -6 3 -7 1 -3 -5 4 -7 1 -18 -6 -26
-11 -12 -16 -11 -37 7 -13 12 -21 17 -18 11 4 -7 -1 -18 -10 -25 -15 -13 -16
-11 -10 11 6 24 5 24 -8 6 -17 -22 -2 -51 22 -42 12 5 15 2 17 -26 1 -18 16
-27 33 -21 15 6 18 33 2 33 -5 0 -7 -6 -3 -12 5 -9 2 -9 -9 1 -25 20 -23 45 2
31 28 -14 44 -12 37 5 -7 18 3 45 16 45 6 0 8 -7 5 -15 -4 -8 -1 -17 5 -21 7
-4 2 -13 -12 -24 -19 -15 -20 -18 -6 -23 11 -4 16 -1 17 11 0 10 3 12 6 5 2
-7 9 -13 14 -13 6 0 7 6 2 13 -10 16 -11 48 -1 69 11 23 -3 29 -26 12z"/>
<path d="M47 223 c-10 -10 -8 -23 4 -23 5 0 8 4 5 9 -4 5 0 12 6 14 7 3 8 6 2
6 -6 1 -14 -2 -17 -6z"/>
<path d="M457 223 c-10 -10 -8 -23 4 -23 5 0 8 4 5 9 -4 5 0 12 6 14 7 3 8 6
2 6 -6 1 -14 -2 -17 -6z"/>
<path d="M624 204 c3 -9 6 -19 6 -22 0 -9 20 21 20 31 0 4 -7 7 -16 7 -11 0
-14 -5 -10 -16z"/>
<path d="M805 190 c3 -5 8 -10 11 -10 2 0 4 5 4 10 0 6 -5 10 -11 10 -5 0 -7
-4 -4 -10z"/>
<path d="M170 161 c8 -6 11 -11 6 -11 -5 0 -3 -7 4 -15 7 -9 10 -19 6 -22 -4
-4 -11 -1 -16 7 -7 11 -9 9 -7 -8 0 -12 7 -22 14 -22 7 0 13 -5 13 -12 0 -6 7
-4 18 5 15 14 19 15 19 2 0 -8 -5 -11 -10 -8 -6 3 -7 1 -3 -6 4 -6 12 -9 17
-6 16 11 10 -7 -8 -21 -17 -13 -17 -14 1 -7 14 5 17 3 11 -7 -6 -9 -4 -11 4
-6 7 5 10 11 7 14 -3 3 -1 11 5 19 9 10 8 13 0 13 -7 0 -9 5 -6 10 5 8 12 7
23 -2 9 -8 13 -8 9 -2 -4 7 0 14 8 17 9 4 12 1 8 -9 -3 -7 0 -14 7 -14 6 0 10
8 9 18 -1 9 -1 26 0 37 2 20 2 20 16 1 12 -16 15 -17 15 -4 0 30 -29 28 -50
-3 -23 -31 -40 -31 -40 1 0 20 -29 55 -38 45 -3 -3 3 -12 14 -20 18 -14 18
-14 -7 -15 -19 0 -26 5 -25 17 0 10 -7 19 -19 21 -16 2 -17 1 -5 -7z"/>
<path d="M610 160 c0 -5 5 -10 10 -10 6 0 10 -5 10 -11 0 -7 -10 -9 -24 -5
-14 3 -28 2 -31 -4 -4 -6 1 -7 12 -3 16 6 16 5 4 -11 -13 -15 -16 -16 -30 -1
-14 14 -14 17 -1 25 13 9 13 10 -1 10 -9 0 -19 -3 -23 -7 -4 -5 -13 -8 -18 -8
-6 0 -13 -6 -16 -14 -3 -10 0 -12 12 -8 9 4 14 3 11 -2 -3 -5 -1 -13 5 -16 6
-4 9 -2 8 3 -2 6 2 10 7 10 6 0 9 -4 8 -9 -2 -5 6 -9 16 -9 11 0 22 -4 25 -9
4 -5 14 -8 24 -6 9 2 23 4 30 4 16 1 15 51 -2 74 -14 19 -36 23 -36 7z m35
-39 c-3 -6 -14 -10 -23 -10 -15 1 -15 2 1 6 9 2 17 9 17 15 0 6 3 9 6 5 3 -3
3 -10 -1 -16z"/>
<path d="M5 150 c-3 -4 4 -10 15 -13 11 -3 22 -2 25 3 3 4 -4 10 -15 13 -11 3
-22 2 -25 -3z"/>
<path d="M470 152 c0 -7 -3 -11 -8 -9 -4 3 -7 -7 -7 -23 -1 -24 3 -27 22 -24
13 3 23 0 23 -5 0 -8 -29 -21 -55 -25 -5 0 -10 -12 -10 -26 0 -15 -7 -26 -18
-28 -17 -3 -22 8 -17 38 1 8 0 13 -2 10 -2 -3 -10 -14 -18 -24 -8 -11 -10 -17
-4 -13 7 4 14 0 18 -8 9 -25 45 -18 52 10 7 29 8 30 39 9 18 -12 28 -13 44 -5
19 11 19 12 3 41 -9 16 -21 30 -25 30 -4 0 -14 15 -22 33 -8 17 -14 26 -15 19z
m10 -38 c0 -8 -5 -12 -10 -9 -6 4 -8 11 -5 16 9 14 15 11 15 -7z m10 -54 c0
-5 -4 -10 -10 -10 -5 0 -10 5 -10 10 0 6 5 10 10 10 6 0 10 -4 10 -10z"/>
<path d="M674 98 c8 -57 15 -59 13 -4 -1 25 -6 46 -10 46 -5 0 -6 -19 -3 -42z"/>
<path d="M9 123 c-4 -35 -6 -104 -2 -88 3 11 9 24 14 30 12 12 11 52 -1 60 -5
3 -10 3 -11 -2z"/>
<path d="M752 102 c-2 -7 -11 -11 -19 -8 -9 4 -12 2 -7 -7 5 -8 2 -7 -9 2 -21
17 -24 -4 -3 -24 12 -12 15 -12 20 1 3 9 13 14 21 10 8 -3 19 3 25 12 11 16
11 16 6 0 -3 -12 -1 -15 9 -12 7 3 13 13 12 22 -1 20 -47 23 -55 4z"/>
<path d="M135 81 c-3 -6 -1 -11 5 -11 6 0 10 -6 9 -12 -3 -26 1 -39 11 -33 6
3 13 -1 16 -9 3 -9 11 -16 16 -16 6 0 5 7 -2 15 -11 13 -10 18 6 31 10 9 14
13 7 10 -6 -4 -16 2 -22 11 -8 14 -11 15 -11 3 -1 -12 -3 -11 -14 3 -9 12 -16
14 -21 8z m42 -37 c-3 -3 -12 -4 -19 -1 -8 3 -5 6 6 6 11 1 17 -2 13 -5z"/>
<path d="M546 65 c4 -8 11 -15 17 -15 6 0 2 -6 -9 -14 -10 -8 -16 -18 -12 -22
4 -4 14 -1 22 5 10 9 16 9 21 1 5 -8 13 -7 28 2 24 15 67 13 67 -3 0 -5 12 -9
26 -9 14 0 23 4 20 9 -4 5 0 12 6 14 15 6 -15 10 -51 7 -13 -1 -21 2 -17 8 3
6 1 14 -5 18 -8 4 -9 3 -5 -4 4 -7 1 -12 -9 -12 -9 0 -13 5 -10 10 8 13 -17 8
-27 -5 -5 -6 -12 -4 -18 5 -5 8 -10 11 -10 6 0 -6 -5 -5 -12 2 -17 17 -29 15
-22 -3z m74 -30 c0 -11 -29 -11 -33 -1 -4 10 1 12 14 9 10 -3 19 -7 19 -8z"/>
<path d="M747 64 c-3 -4 -2 -14 3 -24 5 -10 6 -20 3 -24 -3 -3 -1 -6 5 -6 7 0
12 4 12 9 0 5 9 11 20 14 26 7 26 23 -1 30 -16 4 -18 3 -9 -8 9 -11 7 -12 -9
-8 -12 3 -18 9 -15 14 6 10 0 12 -9 3z"/>
<path d="M275 39 c-4 -11 -5 -23 -2 -25 9 -9 47 -13 42 -4 -3 4 1 11 7 13 8 4
4 8 -9 12 -13 4 -20 11 -17 16 3 5 1 9 -5 9 -5 0 -13 -9 -16 -21z"/>
<path d="M412 40 c0 -14 2 -19 5 -12 2 6 2 18 0 25 -3 6 -5 1 -5 -13z"/>
<path d="M457 21 c-3 -14 -1 -18 9 -14 16 6 18 19 5 27 -5 3 -11 -3 -14 -13z"/>
</g>
</svg>
