<?xml version="1.0" standalone="no"?>
<!DOCTYPE svg PUBLIC "-//W3C//DTD SVG 20010904//EN"
 "http://www.w3.org/TR/2001/REC-SVG-20010904/DTD/svg10.dtd">
<svg version="1.0" xmlns="http://www.w3.org/2000/svg"
 width="204.000000pt" height="155.000000pt" viewBox="0 0 204.000000 155.000000"
 preserveAspectRatio="xMidYMid meet">

<g transform="translate(0.000000,155.000000) scale(0.100000,-0.100000)"
fill="#000000" stroke="none">
<path d="M922 1432 c-57 -31 -111 -61 -120 -67 -10 -5 -96 -57 -192 -114 -522
-310 -550 -330 -550 -410 0 -28 8 -59 19 -77 20 -32 34 -42 286 -188 83 -48
157 -92 165 -97 8 -5 112 -65 229 -134 201 -117 218 -125 268 -125 68 0 110
17 268 111 293 173 526 308 619 360 109 60 132 88 114 141 -6 15 -14 28 -19
28 -6 0 -5 8 1 19 34 65 0 102 -202 214 -57 32 -73 36 -107 31 -42 -7 -36 -9
-216 91 -132 74 -175 110 -175 152 0 17 -40 47 -131 102 -26 15 -53 21 -95 21
-53 0 -70 -6 -162 -58z m221 -3 c12 -7 24 -13 26 -15 2 -2 -10 -15 -27 -29
-48 -40 -76 -107 -69 -165 11 -96 82 -170 228 -240 144 -69 286 -64 444 15
l69 35 67 -41 c83 -50 96 -64 80 -83 -7 -8 -155 -97 -329 -197 -575 -331 -567
-326 -570 -347 -5 -33 24 -32 83 4 32 19 59 34 60 34 1 0 54 30 116 66 372
217 628 364 640 366 20 5 23 -31 3 -53 -9 -10 -22 -19 -27 -19 -14 0 -505
-285 -696 -403 -137 -85 -214 -105 -271 -72 -14 8 -32 17 -40 21 -8 4 -42 24
-75 44 -52 32 -260 155 -313 185 -265 151 -395 231 -413 254 -28 35 -19 78 23
114 33 29 220 148 373 237 44 26 166 98 270 160 105 62 204 119 220 126 37 16
99 18 128 3z m90 -55 c3 -3 -7 -17 -23 -31 -36 -30 -53 -87 -41 -131 32 -108
177 -193 336 -196 70 -1 88 3 134 27 51 26 111 36 111 18 0 -14 -98 -52 -177
-68 -58 -12 -87 -13 -133 -5 -86 16 -186 68 -251 132 -85 84 -88 144 -11 223
37 38 44 42 55 31z m63 -95 c16 -17 61 -49 99 -71 197 -113 208 -120 194 -129
-25 -16 -135 -9 -204 12 -87 27 -165 97 -165 149 0 30 23 70 40 70 3 0 19 -14
36 -31z"/>
<path d="M1067 1113 c-4 -3 -7 -11 -7 -17 0 -6 5 -5 12 2 6 6 9 14 7 17 -3 3
-9 2 -12 -2z"/>
<path d="M900 1095 c-1 -5 -2 -13 -1 -17 0 -5 -3 -8 -9 -8 -5 0 -10 -5 -10
-12 0 -8 6 -7 16 4 9 9 14 22 11 30 -3 7 -6 9 -7 3z"/>
<path d="M1025 1080 c-3 -5 -1 -10 4 -10 6 0 11 5 11 10 0 6 -2 10 -4 10 -3 0
-8 -4 -11 -10z"/>
<path d="M870 1024 c0 -13 -7 -15 -31 -10 -26 5 -30 4 -20 -8 10 -11 8 -16 -7
-20 -10 -4 -30 -18 -43 -33 l-24 -26 25 13 c13 7 31 19 38 27 16 15 38 17 47
3 13 -21 22 -8 22 30 0 22 -1 40 -3 40 -2 0 -4 -7 -4 -16z"/>
<path d="M943 1034 c3 -4 2 -16 -4 -28 -10 -20 -10 -20 5 -2 19 24 20 36 4 36
-6 0 -8 -3 -5 -6z"/>
<path d="M980 1008 c0 -11 28 -10 35 1 3 6 -4 9 -15 8 -11 -1 -20 -5 -20 -9z"/>
<path d="M1015 980 c-3 -5 1 -10 9 -10 9 0 16 5 16 10 0 6 -4 10 -9 10 -6 0
-13 -4 -16 -10z"/>
<path d="M1256 971 c-4 -7 -5 -15 -2 -18 9 -9 19 4 14 18 -4 11 -6 11 -12 0z"/>
<path d="M822 944 c-20 -14 -31 -54 -14 -54 5 1 44 70 38 70 -1 0 -12 -7 -24
-16z"/>
<path d="M1020 940 c0 -5 5 -10 10 -10 6 0 10 5 10 10 0 6 -4 10 -10 10 -5 0
-10 -4 -10 -10z"/>
<path d="M1194 932 c-6 -4 -14 -25 -17 -47 -4 -27 -3 -35 3 -25 5 8 10 25 10
37 0 12 8 27 18 32 9 6 13 10 7 11 -5 0 -15 -4 -21 -8z"/>
<path d="M1141 884 c0 -11 3 -14 6 -6 3 7 2 16 -1 19 -3 4 -6 -2 -5 -13z"/>
<path d="M1226 883 c-6 -14 -5 -15 5 -6 7 7 10 15 7 18 -3 3 -9 -2 -12 -12z"/>
<path d="M810 871 c0 -6 4 -13 10 -16 6 -3 7 1 4 9 -7 18 -14 21 -14 7z"/>
<path d="M1190 820 c-8 -5 -10 -10 -5 -10 6 0 17 5 25 10 8 5 11 10 5 10 -5 0
-17 -5 -25 -10z"/>
<path d="M1264 794 c-18 -14 -18 -15 4 -4 12 6 22 13 22 15 0 8 -5 6 -26 -11z"/>
<path d="M1182 747 c-13 -7 -32 -28 -42 -45 -16 -25 -27 -32 -52 -33 -31 0
-32 -1 -10 -11 34 -17 68 3 76 44 5 26 9 30 16 18 5 -8 10 -11 10 -6 0 5 9 1
20 -9 22 -20 24 -17 11 19 -7 17 -7 26 2 30 7 2 8 5 2 5 -5 0 -20 -5 -33 -12z"/>
<path d="M1167 665 c-10 -21 -16 -40 -13 -42 7 -7 38 56 34 68 -2 6 -11 -6
-21 -26z"/>
</g>
</svg>
