<?xml version="1.0" standalone="no"?>
<!DOCTYPE svg PUBLIC "-//W3C//DTD SVG 20010904//EN"
 "http://www.w3.org/TR/2001/REC-SVG-20010904/DTD/svg10.dtd">
<svg version="1.0" xmlns="http://www.w3.org/2000/svg"
 width="512.000000pt" height="512.000000pt" viewBox="0 0 512.000000 512.000000"
 preserveAspectRatio="xMidYMid meet">

<g transform="translate(0.000000,512.000000) scale(0.100000,-0.100000)"
fill="#000000" stroke="none">
<path d="M2345 5114 c-405 -40 -703 -132 -1115 -345 -177 -92 -202 -112 -202
-160 1 -19 37 -124 81 -233 l81 -199 -65 -236 c-255 -935 -326 -1493 -216
-1708 25 -50 71 -91 186 -165 246 -159 540 -275 838 -330 l117 -22 0 -149 c0
-144 1 -149 25 -172 15 -15 36 -25 54 -25 78 0 91 29 91 205 0 74 2 135 5 135
4 0 19 -7 36 -15 46 -24 146 -53 226 -65 103 -16 243 8 376 64 l37 16 0 -135
c0 -176 13 -205 91 -205 18 0 39 10 54 25 24 23 25 28 25 172 l0 149 118 22
c297 55 591 171 837 330 115 74 161 115 186 165 110 215 39 773 -216 1708
l-65 236 81 199 c44 109 80 214 81 233 0 48 -25 68 -202 160 -483 250 -813
339 -1280 346 -124 1 -243 1 -265 -1z m575 -189 c153 -22 349 -73 501 -130
134 -51 462 -205 473 -223 10 -16 -264 -694 -278 -688 -168 73 -293 113 -455
146 -404 82 -798 82 -1202 0 -162 -33 -287 -73 -455 -146 -14 -6 -288 672
-278 688 11 18 339 172 473 223 203 76 429 127 661 149 97 9 449 -3 560 -19z
m-100 -1016 c214 -20 476 -77 630 -138 30 -12 87 -40 127 -62 40 -21 84 -39
98 -39 40 0 68 36 110 143 21 53 39 96 41 94 6 -6 128 -494 163 -652 75 -347
95 -488 95 -705 1 -178 -1 -198 -19 -229 -37 -63 -276 -207 -483 -291 -95 -39
-315 -110 -341 -110 -3 0 41 48 99 108 182 187 269 345 317 577 9 39 10 40 60
46 107 14 204 83 253 183 109 221 -30 465 -279 492 -36 4 -88 17 -116 29 -113
51 -301 209 -477 402 -36 40 -77 75 -92 79 -20 5 -67 -14 -218 -90 -106 -53
-252 -118 -324 -145 -274 -104 -639 -204 -929 -255 -193 -34 -220 -42 -277
-78 -81 -51 -129 -125 -147 -224 -34 -187 99 -368 287 -392 56 -7 56 -7 65
-47 48 -233 135 -390 317 -577 58 -60 102 -108 99 -108 -15 0 -190 53 -269 81
-209 75 -514 251 -555 320 -18 31 -20 50 -19 234 1 177 5 221 32 380 17 99 50
261 72 360 37 165 148 606 154 612 1 2 20 -41 41 -94 41 -105 70 -143 108
-143 13 0 70 24 128 53 116 59 225 96 386 132 291 65 562 82 863 54z m274
-392 c130 -129 228 -210 336 -275 l65 -39 0 -284 c0 -312 -5 -349 -65 -478
-138 -296 -490 -579 -792 -639 -70 -14 -86 -14 -156 0 -302 60 -654 344 -792
639 -58 125 -63 160 -67 464 l-5 281 99 18 c353 66 778 207 1098 365 77 38
143 70 147 70 4 1 63 -54 132 -122z m-1644 -528 l0 -172 -35 6 c-101 16 -164
138 -119 232 20 44 54 74 101 90 21 8 41 14 46 15 4 0 7 -77 7 -171z m2302
145 c40 -20 79 -77 85 -124 12 -85 -50 -174 -131 -187 l-36 -6 0 172 0 171 28
-6 c15 -4 39 -13 54 -20z"/>
<path d="M2518 4765 c-29 -16 -48 -64 -48 -122 0 -32 -1 -33 -45 -33 -59 0
-103 -23 -112 -58 -18 -70 20 -112 101 -112 l53 0 6 -61 c7 -76 33 -109 87
-109 54 0 80 33 87 109 l6 61 53 0 c81 0 119 42 101 112 -9 35 -53 58 -112 58
-44 0 -45 1 -45 33 0 60 -19 106 -50 122 -36 18 -47 18 -82 0z"/>
<path d="M2009 3153 c-39 -6 -106 -67 -119 -109 -36 -109 31 -212 143 -222 94
-8 169 51 184 143 7 46 -20 117 -58 149 -27 23 -91 48 -114 44 -5 0 -22 -3
-36 -5z"/>
<path d="M3017 3146 c-52 -19 -83 -50 -103 -102 -45 -117 46 -232 173 -222 89
8 144 63 150 150 9 123 -108 215 -220 174z"/>
<path d="M2245 2365 c-27 -26 -33 -72 -15 -105 14 -27 129 -89 198 -107 73
-20 191 -20 264 0 69 18 184 80 198 107 29 54 -9 130 -65 130 -15 0 -54 -16
-88 -34 -114 -64 -240 -64 -354 0 -73 40 -105 43 -138 9z"/>
<path d="M1545 1443 c-647 -84 -1083 -297 -1336 -653 -99 -139 -169 -325 -194
-516 -23 -175 -21 -210 14 -245 36 -35 70 -37 107 -6 26 22 28 32 40 154 28
280 108 468 276 641 156 162 402 296 678 371 98 27 250 60 250 55 0 -2 -22
-49 -50 -104 -27 -55 -50 -106 -50 -114 0 -47 25 -67 182 -147 l158 -80 0
-150 c0 -114 4 -157 15 -179 17 -33 -11 -23 517 -180 l318 -95 0 -55 c0 -100
51 -157 118 -134 37 13 62 66 62 134 l0 55 318 95 c528 157 500 147 517 180
11 22 15 65 15 179 l0 150 158 80 c157 80 182 100 182 147 0 8 -23 59 -50 114
-58 116 -64 111 90 76 483 -111 809 -330 963 -649 57 -118 85 -224 101 -388
12 -124 14 -133 40 -156 37 -31 71 -29 107 6 24 25 29 38 29 80 0 161 -58 408
-129 548 -130 259 -393 484 -718 614 -287 116 -807 213 -896 168 -12 -6 -201
-189 -419 -407 l-398 -397 -397 397 c-219 218 -408 401 -420 407 -20 10 -132
13 -198 4z m528 -561 l398 -398 -3 -55 -3 -56 -335 101 -335 101 -5 155 c-3
85 -9 162 -15 171 -5 9 -74 49 -153 88 l-142 71 55 110 55 110 43 0 42 0 398
-398z m1512 288 l55 -110 -137 -69 c-76 -38 -146 -77 -155 -88 -15 -16 -18
-44 -20 -173 l-3 -155 -335 -101 -335 -101 -3 56 -3 55 398 398 398 398 42 0
43 0 55 -110z"/>
</g>
</svg>
